<svg
  xmlns="http://www.w3.org/2000/svg"
  viewBox="0 0 256 256"
  focusable="false"
  color="var(--token-004f7432-50cf-439a-970d-c6de6d6e1d21, rgba(255, 255, 255, 0.6))"
  style="user-select: none; width: 100%; height: 100%; display: inline-block; fill: var(--token-004f7432-50cf-439a-970d-c6de6d6e1d21, rgba(255, 255, 255, 0.6)); color: var(--token-004f7432-50cf-439a-970d-c6de6d6e1d21, rgba(255, 255, 255, 0.6)); flex-shrink: 0;">
  <g
    color="var(--token-004f7432-50cf-439a-970d-c6de6d6e1d21, rgba(255, 255, 255, 0.6))"
    weight="regular">
    <path d="M232,144a64.07,64.07,0,0,1-64,64H80a8,8,0,0,1,0-16h88a48,48,0,0,0,0-96H51.31l34.35,34.34a8,8,0,0,1-11.32,11.32l-48-48a8,8,0,0,1,0-11.32l48-48A8,8,0,0,1,85.66,45.66L51.31,80H168A64.07,64.07,0,0,1,232,144Z"></path>
  </g>
</svg>