<svg xmlns="http://www.w3.org/2000/svg" display="block" role="presentation" viewBox="0 0 24 24" id="4159562592" style="&#10;    --1m6trwb: 0;&#10;    --21h8s6: var(--token-1ed07eb1-06d2-44a2-9c81-69ea1bd2c5e1, rgb(255, 255, 255));&#10;    --pgex8v: 1.5;&#10;    opacity: 1;&#10;"><path d="M 7.5 0 C 3.358 0 0 3.358 0 7.5 C 0 14.25 7.5 19.5 7.5 19.5 C 7.5 19.5 15 14.25 15 7.5 C 15 3.358 11.642 0 7.5 0 Z M 7.5 10.5 C 5.843 10.5 4.5 9.157 4.5 7.5 C 4.5 5.843 5.843 4.5 7.5 4.5 C 9.157 4.5 10.5 5.843 10.5 7.5 C 10.5 9.157 9.157 10.5 7.5 10.5 Z" fill-opacity="var(--1m6trwb, 0)" fill="var(--21h8s6, rgb(0, 0, 0))" height="19.5px" id="eB8SaW_W5" transform="translate(4.5 2.25)" width="15px"/><path d="M 0 3 C 0 1.343 1.343 0 3 0 C 4.657 0 6 1.343 6 3 C 6 4.657 4.657 6 3 6 C 1.343 6 0 4.657 0 3 Z" fill="transparent" height="6px" id="Psdr3EPAA" stroke-dasharray="" stroke-linecap="round" stroke-linejoin="round" stroke-width="var(--pgex8v, 1.5)" stroke="var(--21h8s6, rgb(0, 0, 0))" transform="translate(9 6.75)" width="6px"/><path d="M 15 7.5 C 15 14.25 7.5 19.5 7.5 19.5 C 7.5 19.5 0 14.25 0 7.5 C 0 3.358 3.358 0 7.5 0 C 11.642 0 15 3.358 15 7.5 Z" fill="transparent" height="19.5px" id="nWyCs7cMd" stroke-dasharray="" stroke-linecap="round" stroke-linejoin="round" stroke-width="var(--pgex8v, 1.5)" stroke="var(--21h8s6, rgb(0, 0, 0))" transform="translate(4.5 2.25)" width="15px"/></svg>