<svg xmlns="http://www.w3.org/2000/svg" display="block" role="presentation" viewBox="0 0 24 24" id="405654161" style="&#10;    --1m6trwb: 0;&#10;    --21h8s6: var(--token-1ed07eb1-06d2-44a2-9c81-69ea1bd2c5e1, rgb(255, 255, 255));&#10;    --pgex8v: 1.5;&#10;    opacity: 1;&#10;"><path d="M 9 2.408 C 5.84 2.413 2.735 1.583 0 0.001 L 0 0.001 L 0 7.658 C 0 8.073 0.336 8.408 0.75 8.408 L 17.25 8.408 C 17.664 8.408 18 8.073 18 7.658 L 18 0 C 15.265 1.583 12.16 2.413 9 2.408 Z" fill-opacity="var(--1m6trwb, 0)" fill="var(--21h8s6, rgb(0, 0, 0))" height="8.408437499999991px" id="yZxSY5tM2" transform="translate(3 11.092)" width="18px"/><path d="M 0 0 L 3 0" fill="transparent" height="1px" id="ZO1T9W9Kn" stroke-dasharray="" stroke-linecap="round" stroke-linejoin="round" stroke-width="var(--pgex8v, 1.5)" stroke="var(--21h8s6, rgb(0, 0, 0))" transform="translate(10.5 10.5)" width="3px"/><path d="M 0.75 13.5 C 0.336 13.5 0 13.164 0 12.75 L 0 0.75 C 0 0.336 0.336 0 0.75 0 L 17.25 0 C 17.664 0 18 0.336 18 0.75 L 18 12.75 C 18 13.164 17.664 13.5 17.25 13.5 Z" fill="transparent" height="13.5px" id="U1X8jGTeU" stroke-dasharray="" stroke-linecap="round" stroke-linejoin="round" stroke-width="var(--pgex8v, 1.5)" stroke="var(--21h8s6, rgb(0, 0, 0))" transform="translate(3 6)" width="18px"/><path d="M 7.5 3 L 7.5 1.5 C 7.5 0.672 6.828 0 6 0 L 1.5 0 C 0.672 0 0 0.672 0 1.5 L 0 3" fill="transparent" height="3px" id="NHVMwj9J3" stroke-dasharray="" stroke-linecap="round" stroke-linejoin="round" stroke-width="var(--pgex8v, 1.5)" stroke="var(--21h8s6, rgb(0, 0, 0))" transform="translate(8.25 3)" width="7.5px"/><path d="M 18 0 C 15.265 1.583 12.16 2.413 9 2.408 C 5.84 2.413 2.735 1.583 0 0.001" fill="transparent" height="2.408460292330787px" id="gCBdRGdgX" stroke-dasharray="" stroke-linecap="round" stroke-linejoin="round" stroke-width="var(--pgex8v, 1.5)" stroke="var(--21h8s6, rgb(0, 0, 0))" transform="translate(3 11.092)" width="18px"/><!-- Code injected by live-server -->
</svg>